<?xml version="1.0" standalone="no"?>
<!DOCTYPE svg PUBLIC "-//W3C//DTD SVG 20010904//EN"
 "http://www.w3.org/TR/2001/REC-SVG-20010904/DTD/svg10.dtd">
<svg version="1.0" xmlns="http://www.w3.org/2000/svg"
 width="225.000000pt" height="225.000000pt" viewBox="0 0 225.000000 225.000000"
 preserveAspectRatio="xMidYMid meet">

<g transform="translate(0.000000,225.000000) scale(0.100000,-0.100000)"
fill="#000000" stroke="none">
<path d="M0 1125 l0 -1125 1125 0 1125 0 0 1125 0 1125 -1125 0 -1125 0 0
-1125z m1311 1070 c393 -68 719 -349 845 -727 36 -110 53 -216 54 -339 1 -504
-330 -930 -825 -1060 -78 -21 -113 -24 -265 -24 -160 0 -184 3 -273 27 -201
56 -361 152 -504 302 -139 145 -223 295 -272 486 -29 109 -38 305 -21 421 51
350 271 655 590 816 192 98 456 136 671 98z"/>
<path d="M764 1489 c-345 -345 -349 -350 -318 -415 21 -43 87 -101 125 -109
47 -11 85 18 250 191 l154 162 5 -412 c5 -375 7 -414 23 -439 23 -35 54 -47
122 -47 68 0 99 12 122 47 16 25 18 64 23 438 l5 412 155 -162 c85 -90 170
-170 188 -180 47 -24 86 -12 142 44 52 52 65 91 45 136 -7 16 -154 171 -327
343 -305 303 -315 312 -353 312 -38 0 -48 -9 -361 -321z"/>
</g>
</svg>
