<?xml version="1.0" encoding="utf-8"?>
<!-- Generator: Adobe Illustrator 21.0.2, SVG Export Plug-In . SVG Version: 6.00 Build 0)  -->
<svg version="1.1" id="Layer_1" xmlns="http://www.w3.org/2000/svg" xmlns:xlink="http://www.w3.org/1999/xlink" x="0px" y="0px"
	 viewBox="0 0 64 64" style="enable-background:new 0 0 64 64;" xml:space="preserve">
<style type="text/css">
	.st0{fill-rule:evenodd;clip-rule:evenodd;}
</style>
<g>
	<path style="fill: #CCCCCC;" d="M63.3,12H0.7C0.3,12,0,11.7,0,11.3V7.7C0,7.3,0.3,7,0.7,7h62.5C63.7,7,64,7.3,64,7.7v3.5C64,11.7,63.7,12,63.3,12z"/>
	<path style="fill: #CCCCCC;" d="M63.3,57H0.7C0.3,57,0,56.7,0,56.3v-3.5C0,52.3,0.3,52,0.7,52h62.5c0.4,0,0.7,0.3,0.7,0.7v3.5C64,56.7,63.7,57,63.3,57z"/>
	<path style="fill: #CCCCCC;" d="M63.3,34.5H0.7c-0.4,0-0.7-0.3-0.7-0.7v-3.5c0-0.4,0.3-0.7,0.7-0.7h62.5c0.4,0,0.7,0.3,0.7,0.7v3.5
		C64,34.2,63.7,34.5,63.3,34.5z"/>
</g>
</svg>
